<svg width="33" height="33" viewBox="0 0 33 33" fill="none" xmlns="http://www.w3.org/2000/svg">
<path d="M16.5 0C25.6135 0 33 7.38795 33 16.5C33 25.6135 25.6135 33 16.5 33C7.38795 33 0 25.6128 0 16.5C0 7.38795 7.38795 0 16.5 0Z" fill="#F5AC37"/>
<path d="M17.103 17.6649H23.3727C23.5064 17.6649 23.5695 17.6649 23.5791 17.4897C23.6304 16.8518 23.6304 16.2103 23.5791 15.5718C23.5791 15.4478 23.5175 15.3965 23.3831 15.3965H10.9053C10.7508 15.3965 10.7093 15.4478 10.7093 15.5925V17.428C10.7093 17.6649 10.7093 17.6649 10.9565 17.6649H17.103V17.6649ZM22.879 13.2514C22.8968 13.2046 22.8968 13.1534 22.879 13.1074C22.7743 12.8794 22.6503 12.6619 22.5062 12.4577C22.2894 12.1087 22.034 11.7872 21.7429 11.4984C21.6055 11.3239 21.4467 11.1672 21.2685 11.0343C20.376 10.2747 19.3149 9.73713 18.1744 9.46686C17.599 9.33767 17.0109 9.27604 16.4214 9.28123H10.8837C10.7293 9.28123 10.7085 9.34286 10.7085 9.47726V13.1378C10.7085 13.2923 10.7085 13.3338 10.9045 13.3338H22.8047C22.8047 13.3338 22.9079 13.313 22.9287 13.2514H22.8782H22.879ZM22.879 19.81C22.7037 19.7907 22.527 19.7907 22.3518 19.81H10.9157C10.7612 19.81 10.7093 19.81 10.7093 20.0164V23.5953C10.7093 23.7601 10.7093 23.8017 10.9157 23.8017H16.1956C16.4481 23.821 16.7005 23.8032 16.9478 23.7505C17.7141 23.6955 18.4677 23.5292 19.1865 23.2552C19.4478 23.1646 19.7003 23.0466 19.9386 22.9048H20.0106C21.2484 22.261 22.2538 21.2497 22.8879 20.0082C22.8879 20.0082 22.9599 19.8523 22.879 19.8115V19.81ZM8.63692 25.6572V25.5956V23.1929V22.3783V19.9548C8.63692 19.8204 8.63692 19.8003 8.47208 19.8003H6.23416C6.11016 19.8003 6.05893 19.8003 6.05893 19.6355V17.676H8.45129C8.58494 17.676 8.63692 17.676 8.63692 17.5008V15.5621C8.63692 15.4381 8.63692 15.4077 8.47208 15.4077H6.23416C6.11016 15.4077 6.05893 15.4077 6.05893 15.2428V13.4281C6.05893 13.3145 6.05893 13.2841 6.22377 13.2841H8.44089C8.59533 13.2841 8.63692 13.2841 8.63692 13.0881V7.52966C8.63692 7.36482 8.63692 7.32324 8.84333 7.32324H16.5773C17.1386 7.34552 17.6962 7.40715 18.2479 7.50887C19.3847 7.719 20.4769 8.12515 21.4756 8.70505C22.1379 9.09486 22.7475 9.56562 23.2903 10.1076C23.6987 10.5316 24.067 10.9905 24.3937 11.4791C24.7181 11.9743 24.9877 12.5037 25.1993 13.0569C25.2253 13.2009 25.3634 13.2982 25.5074 13.2737H27.3533C27.5902 13.2737 27.5902 13.2737 27.6006 13.5009V15.1923C27.6006 15.3572 27.5389 15.3988 27.3733 15.3988H25.95C25.8059 15.3988 25.7643 15.3988 25.7747 15.5844C25.8312 16.2125 25.8312 16.8429 25.7747 17.4711C25.7747 17.6463 25.7747 17.6671 25.9715 17.6671H27.5998C27.6718 17.7599 27.5998 17.8527 27.5998 17.9463C27.6102 18.0658 27.6102 18.1869 27.5998 18.3064V19.5546C27.5998 19.7298 27.5486 19.7818 27.3934 19.7818H25.4443C25.3084 19.7558 25.1763 19.8427 25.1451 19.9778C24.681 21.1844 23.9385 22.2662 22.9792 23.1335C22.6287 23.449 22.2604 23.746 21.8758 24.02C21.463 24.2576 21.0613 24.5049 20.6381 24.7009C19.8592 25.0514 19.0424 25.3097 18.2041 25.4738C17.4082 25.6164 16.6011 25.681 15.791 25.6699H8.63395V25.6595L8.63692 25.6572Z" fill="#FEFEFD"/>
</svg>
