<svg width="33" height="34" viewBox="0 0 33 34" fill="none" xmlns="http://www.w3.org/2000/svg">
<circle cx="16.5" cy="17.498" r="16.5" fill="black"/>
<g clip-path="url(#clip0_163_5594)">
<path d="M15.2544 19.1682C14.1478 20.9464 13.0411 22.7235 11.9344 24.5017C11.5777 25.0918 10.9143 25.4101 10.2784 25.3021C9.51474 25.1725 8.92208 24.4505 8.94601 23.5989L8.95285 11.2617C8.99046 10.484 9.56147 9.83138 10.3228 9.69267C11.0671 9.55624 11.8193 9.94394 12.143 10.6341L15.21 15.8425C13.9004 14.9023 12.592 13.9631 11.2825 13.0229C11.2939 15.9994 11.3041 18.9772 11.3155 21.9537C12.6285 21.0248 13.9415 20.0971 15.2556 19.1682H15.2544Z" fill="url(#paint0_linear_163_5594)"/>
<path d="M17.75 19.174C18.8567 20.9522 19.9634 22.7293 21.07 24.5075C21.4268 25.0976 22.0901 25.416 22.7261 25.308C23.4908 25.1783 24.0824 24.4564 24.0584 23.6048L24.0527 11.2675C24.0151 10.4899 23.4441 9.83724 22.6828 9.69853C21.9385 9.5621 21.1863 9.9498 20.8626 10.6399L17.7956 15.8484C19.1051 14.9081 20.4136 13.969 21.7231 13.0287C21.7117 16.0053 21.7015 18.983 21.6901 21.9596C20.3771 21.0307 19.0641 20.1029 17.75 19.174Z" fill="url(#paint1_linear_163_5594)"/>
</g>
<defs>
<linearGradient id="paint0_linear_163_5594" x1="15.8801" y1="17.5309" x2="6.11948" y2="17.4624" gradientUnits="userSpaceOnUse">
<stop stop-color="#B5B5B5"/>
<stop offset="0.25" stop-color="#D1D1D1"/>
<stop offset="0.53" stop-color="#EAEAEA"/>
<stop offset="0.79" stop-color="#F9F9F9"/>
<stop offset="1" stop-color="white"/>
</linearGradient>
<linearGradient id="paint1_linear_163_5594" x1="17.1266" y1="17.5379" x2="26.8861" y2="17.4694" gradientUnits="userSpaceOnUse">
<stop stop-color="#B5B5B5"/>
<stop offset="0.25" stop-color="#D1D1D1"/>
<stop offset="0.53" stop-color="#EAEAEA"/>
<stop offset="0.79" stop-color="#F9F9F9"/>
<stop offset="1" stop-color="white"/>
</linearGradient>
<clipPath id="clip0_163_5594">
<rect width="15.114" height="15.664" fill="white" transform="translate(8.94531 9.66553)"/>
</clipPath>
</defs>
</svg>
