<svg width="35" height="35" viewBox="0 0 35 35" fill="none" xmlns="http://www.w3.org/2000/svg">
<path d="M33.0182 18.4266C33.0182 27.521 25.6447 34.8946 16.5463 34.8959C7.45457 34.8959 0.0810195 27.521 0.0823371 18.4253C0.0797018 9.32961 7.45325 1.95605 16.549 1.95605C25.6447 1.95605 33.0182 9.33093 33.0182 18.4266V18.4266Z" fill="#EAB300"/>
<path d="M23.0296 14.3925C22.8175 12.1867 20.9135 11.4475 18.5075 11.2367V8.17578H16.6456V11.155C16.1568 11.155 15.6561 11.1642 15.1593 11.1748V8.17578H13.2975L13.2962 11.234C12.893 11.242 12.4963 11.2499 12.1103 11.2499V11.2406L9.54218 11.2393V13.229C9.54218 13.229 10.9178 13.2026 10.8941 13.2277C11.6491 13.2277 11.8942 13.6651 11.9653 14.0433V17.5298C12.018 17.5298 12.0852 17.5324 12.1617 17.543H11.9653L11.964 22.4275C11.9311 22.6647 11.7914 23.0428 11.2643 23.0442C11.2881 23.0652 9.91112 23.0442 9.91112 23.0442L9.54086 25.2684H11.9653C12.416 25.2684 12.86 25.2763 13.2948 25.2789L13.2962 28.3741H15.1567V25.3118C15.6666 25.3224 16.1607 25.3263 16.6443 25.3263L16.643 28.3741H18.5048V25.2855C21.6355 25.1063 23.8294 24.317 24.1009 21.376C24.3209 19.0082 23.2075 17.9501 21.43 17.5232C22.5118 16.9751 23.1877 16.0066 23.0296 14.3925V14.3925ZM20.4233 21.0097C20.4233 23.3222 16.4638 23.06 15.2002 23.06V18.9581C16.4638 18.9608 20.4233 18.5984 20.4233 21.0097V21.0097ZM19.5563 15.2239C19.5563 17.3282 16.2516 17.0818 15.2002 17.0831V13.3647C16.253 13.3647 19.5576 13.03 19.5563 15.2239Z" fill="white"/>
<path d="M11.9696 17.4473H12.2463V17.6515H11.9696V17.4473Z" fill="white"/>
</svg>
