<svg width="45" height="16" viewBox="0 0 45 16" fill="none" xmlns="http://www.w3.org/2000/svg">
<path d="M1.0791 13H4.92578C7.68066 13 9.21045 11.3369 9.21045 8.33447V8.32178C9.21045 5.46533 7.65527 3.84033 4.92578 3.84033H1.0791V13ZM3.40869 11.1274V5.71289H4.50684C5.97314 5.71289 6.83643 6.66504 6.83643 8.36621V8.37891C6.83643 10.188 6.01758 11.1274 4.50684 11.1274H3.40869ZM13.9902 13.165C16.2563 13.165 17.5894 11.7939 17.5894 9.4707V9.45801C17.5894 7.1665 16.2246 5.77002 13.9902 5.77002C11.7686 5.77002 10.3911 7.1792 10.3911 9.45801V9.4707C10.3911 11.7876 11.7305 13.165 13.9902 13.165ZM13.9902 11.4575C13.165 11.4575 12.6953 10.7275 12.6953 9.4707V9.45801C12.6953 8.23291 13.1777 7.47754 13.9902 7.47754C14.8027 7.47754 15.2852 8.23291 15.2852 9.45801V9.4707C15.2852 10.7212 14.8154 11.4575 13.9902 11.4575ZM22.2168 13.165C24.1338 13.165 25.3081 12.1304 25.4604 10.4546V10.4355H23.4102L23.3975 10.4482C23.2896 11.1211 22.9023 11.4575 22.2295 11.4575C21.3599 11.4575 20.9282 10.7974 20.9282 9.46436V9.45166C20.9282 8.13135 21.3535 7.47754 22.2295 7.47754C22.915 7.47754 23.3086 7.86475 23.4038 8.54395L23.4102 8.55664L25.4604 8.55029L25.4668 8.54395C25.3271 6.80469 24.1655 5.77002 22.2168 5.77002C19.8872 5.77002 18.6431 7.05859 18.6431 9.45166V9.46436C18.6431 11.8701 19.8872 13.165 22.2168 13.165ZM29.8276 13.165C31.7446 13.165 33.0649 12.2256 33.0649 10.7593V10.7529C33.0649 9.69287 32.3984 9.09619 30.9385 8.8042L29.7197 8.56299C29.0469 8.42334 28.8311 8.23926 28.8311 7.92188V7.90918C28.8311 7.51562 29.2056 7.28076 29.7642 7.28076C30.3862 7.28076 30.7354 7.61084 30.8052 7.90283L30.8179 7.94727H32.8745V7.91553C32.8364 6.78564 31.8081 5.77002 29.7642 5.77002C27.8662 5.77002 26.6602 6.65234 26.6602 8.06152V8.06787C26.6602 9.14697 27.3584 9.85791 28.7231 10.1309L29.9419 10.3721C30.583 10.5054 30.8242 10.6958 30.8242 11.0259V11.0322C30.8242 11.4131 30.437 11.6479 29.834 11.6479C29.1802 11.6479 28.8247 11.375 28.6914 11.0132L28.6787 10.9751H26.4951V11.0195C26.6348 12.251 27.7329 13.165 29.8276 13.165Z" fill="#CEBFBF"/>
<path d="M39.1693 7.08337H37.5026C37.2725 7.08337 37.0859 7.26992 37.0859 7.50004V12.5C37.0859 12.7302 37.2725 12.9167 37.5026 12.9167H42.5026C42.7327 12.9167 42.9193 12.7302 42.9193 12.5V10.8334" stroke="#CEBFBF" stroke-linecap="round" stroke-linejoin="round"/>
<path d="M42.8333 8.74996C42.8333 9.0261 43.0572 9.24996 43.3333 9.24996C43.6095 9.24996 43.8333 9.0261 43.8333 8.74996L42.8333 8.74996ZM43.3333 6.66663L43.8333 6.66663C43.8333 6.53402 43.7807 6.40684 43.6869 6.31307C43.5931 6.2193 43.4659 6.16663 43.3333 6.16663V6.66663ZM41.25 6.16663C40.9739 6.16663 40.75 6.39048 40.75 6.66663C40.75 6.94277 40.9739 7.16663 41.25 7.16663V6.16663ZM43.8333 8.74996L43.8333 6.66663L42.8333 6.66663L42.8333 8.74996L43.8333 8.74996ZM43.3333 6.16663H41.25V7.16663H43.3333V6.16663Z" fill="#CEBFBF"/>
<path d="M40.0605 9.22974C39.8652 9.425 39.8652 9.74158 40.0605 9.93685C40.2558 10.1321 40.5724 10.1321 40.7676 9.93685L40.0605 9.22974ZM43.6843 7.02018C43.8795 6.82492 43.8795 6.50833 43.6843 6.31307C43.489 6.11781 43.1724 6.11781 42.9772 6.31307L43.6843 7.02018ZM40.7676 9.93685L43.6843 7.02018L42.9772 6.31307L40.0605 9.22974L40.7676 9.93685Z" fill="#CEBFBF"/>
</svg>
