<svg width="10" height="10" viewBox="0 0 10 10" fill="none" xmlns="http://www.w3.org/2000/svg">
<path d="M4.16659 2.08337H2.49992C2.2698 2.08337 2.08325 2.26992 2.08325 2.50004V7.50004C2.08325 7.73016 2.2698 7.91671 2.49992 7.91671H7.49992C7.73004 7.91671 7.91659 7.73016 7.91659 7.50004V5.83337" stroke="#CEBFBF" stroke-width="2" stroke-linecap="round" stroke-linejoin="round"/>
<path d="M7.33333 3.74996C7.33333 4.30224 7.78105 4.74996 8.33333 4.74996C8.88562 4.74996 9.33333 4.30224 9.33333 3.74996L7.33333 3.74996ZM8.33333 1.66663L9.33333 1.66663C9.33333 1.40141 9.22798 1.14706 9.04044 0.959519C8.8529 0.771983 8.59855 0.666626 8.33333 0.666626V1.66663ZM6.25 0.666626C5.69772 0.666626 5.25 1.11434 5.25 1.66663C5.25 2.21891 5.69772 2.66663 6.25 2.66663V0.666626ZM9.33333 3.74996L9.33333 1.66663L7.33333 1.66663L7.33333 3.74996L9.33333 3.74996ZM8.33333 0.666626H6.25V2.66663H8.33333V0.666626Z" fill="#CEBFBF"/>
<path d="M4.70964 3.87619C4.31912 4.26671 4.31912 4.89988 4.70964 5.2904C5.10017 5.68092 5.73333 5.68092 6.12385 5.2904L4.70964 3.87619ZM9.04052 2.37373C9.43105 1.98321 9.43105 1.35004 9.04052 0.959519C8.65 0.568995 8.01683 0.568995 7.62631 0.959519L9.04052 2.37373ZM6.12385 5.2904L9.04052 2.37373L7.62631 0.959519L4.70964 3.87619L6.12385 5.2904Z" fill="#CEBFBF"/>
</svg>
