<svg width="49" height="49" viewBox="0 0 49 49" fill="none" xmlns="http://www.w3.org/2000/svg">
<path d="M8.95089 10.5097C18.3409 22.427 27.7308 34.3442 37.1242 46.2614C38.7215 48.4914 41.598 49.3315 43.9766 48.3462C46.0164 47.4991 47.3854 45.4421 47.4304 43.1292C47.4269 30.3511 47.4235 17.5695 47.4166 4.79139C47.2195 2.921 46.1132 1.29263 44.4986 0.594257C42.362 -0.332294 39.6411 0.50091 38.1649 2.71011C35.1605 8.22793 32.1561 13.7492 29.1518 19.267C32.7888 16.394 36.4259 13.521 40.0629 10.648C40.0629 19.9101 40.0629 29.1756 40.0629 38.4376C30.6764 26.5204 21.2865 14.6031 11.893 2.68591C10.3753 0.525111 7.60946 -0.339208 5.23431 0.552769C3.0908 1.35832 1.63183 3.44997 1.59034 5.81475C1.58343 18.3543 1.57651 30.8904 1.5696 43.4299C1.49354 46.0782 3.33281 48.3289 5.70796 48.7334C7.68207 49.0688 9.7426 48.08 10.8489 46.2407C13.9294 40.7782 17.0098 35.3192 20.0902 29.8567C16.3771 32.6709 12.6605 35.4851 8.94743 38.3028C8.95089 29.0373 8.95089 19.7752 8.95089 10.5097Z" fill="url(#paint0_radial_2979_5879)"/>
<defs>
<radialGradient id="paint0_radial_2979_5879" cx="0" cy="0" r="1" gradientUnits="userSpaceOnUse" gradientTransform="translate(24.5004 24.5) scale(34.4642)">
<stop stop-color="#B5B5B5"/>
<stop offset="0.2643" stop-color="#C5C4C4"/>
<stop offset="0.7863" stop-color="white"/>
<stop offset="1" stop-color="white"/>
</radialGradient>
</defs>
</svg>
