<svg width="33" height="33" viewBox="0 0 33 33" fill="none" xmlns="http://www.w3.org/2000/svg">
<g clip-path="url(#clip0_1682_6172)">
<path d="M16.4997 33C19.7631 33 22.9532 32.0323 25.6666 30.2193C28.38 28.4062 30.4949 25.8293 31.7437 22.8143C32.9926 19.7993 33.3193 16.4817 32.6827 13.281C32.046 10.0803 30.4745 7.14031 28.167 4.83275C25.8594 2.52518 22.9194 0.953706 19.7187 0.31705C16.518 -0.319606 13.2004 0.00714912 10.1854 1.256C7.17046 2.50484 4.59351 4.61969 2.78047 7.3331C0.967423 10.0465 -0.000285739 13.2366 -0.000285739 16.5C-0.00562765 18.6683 0.417511 20.8163 1.24482 22.8206C2.07213 24.8249 3.28731 26.646 4.82054 28.1792C6.35377 29.7124 8.17484 30.9276 10.1791 31.7549C12.1834 32.5822 14.3314 33.0054 16.4997 33V33Z" fill="#2775CA"/>
<path d="M21.0375 19.1128C21.0375 16.7128 19.5945 15.8803 16.707 15.5368C14.643 15.2623 14.232 14.7118 14.232 13.7503C14.232 12.7888 14.919 12.1678 16.293 12.1678C17.532 12.1678 18.219 12.5803 18.5625 13.6123C18.5994 13.7118 18.6659 13.7975 18.7531 13.8578C18.8403 13.9182 18.944 13.9503 19.05 13.9498H20.1495C20.2132 13.9515 20.2765 13.9402 20.3357 13.9165C20.3949 13.8929 20.4486 13.8575 20.4937 13.8125C20.5387 13.7674 20.5741 13.7137 20.5977 13.6545C20.6213 13.5954 20.6327 13.532 20.631 13.4683V13.4008C20.4982 12.6557 20.1229 11.9753 19.5636 11.4653C19.0043 10.9554 18.2922 10.6444 17.538 10.5808V8.93084C17.538 8.65634 17.331 8.45084 16.9875 8.38184H15.9555C15.681 8.38184 15.4755 8.58734 15.4065 8.93084V10.5178C13.338 10.7998 12.0315 12.1678 12.0315 13.8868C12.0315 16.1563 13.407 17.0503 16.2945 17.3938C18.219 17.7373 18.8445 18.1438 18.8445 19.2493C18.8445 20.3548 17.883 21.1063 16.5765 21.1063C14.7885 21.1063 14.1765 20.3563 13.9635 19.3183C13.9439 19.2024 13.8842 19.097 13.7948 19.0205C13.7055 18.944 13.5921 18.9013 13.4745 18.8998H12.3C12.2364 18.8984 12.1731 18.9099 12.1141 18.9336C12.055 18.9573 12.0013 18.9927 11.9563 19.0377C11.9113 19.0827 11.8759 19.1363 11.8522 19.1954C11.8285 19.2545 11.8171 19.3177 11.8185 19.3813V19.4503C12.0945 21.1693 13.194 22.4068 15.4635 22.7503V24.4003C15.4635 24.6748 15.669 24.8818 16.0125 24.9508H17.0445C17.319 24.9508 17.526 24.7438 17.5935 24.4003V22.7503C19.656 22.4068 21.0315 20.9623 21.0315 19.1068L21.0375 19.1128Z" fill="white"/>
<path d="M12.993 26.3308C11.0148 25.6052 9.30713 24.2898 8.10073 22.5623C6.89433 20.8348 6.2474 18.7786 6.2474 16.6715C6.2474 14.5645 6.89433 12.5083 8.10073 10.7808C9.30713 9.0533 11.0148 7.73787 12.993 7.0123C13.125 6.95521 13.2359 6.85831 13.3101 6.73513C13.3843 6.61196 13.4182 6.46867 13.407 6.3253V5.3623C13.4163 5.23598 13.3794 5.11059 13.3033 5.00937C13.2272 4.90814 13.1169 4.83795 12.993 4.8118C12.8962 4.8017 12.799 4.82614 12.7185 4.8808C10.2156 5.67632 8.03082 7.24767 6.48033 9.36741C4.92984 11.4871 4.09412 14.0453 4.09412 16.6715C4.09412 19.2978 4.92984 21.856 6.48033 23.9757C8.03082 26.0954 10.2156 27.6668 12.7185 28.4623C12.7757 28.4955 12.8399 28.5147 12.9059 28.5183C12.9719 28.5219 13.0378 28.5098 13.0983 28.4831C13.1587 28.4563 13.2119 28.4156 13.2536 28.3642C13.2953 28.3129 13.3242 28.2524 13.338 28.1878C13.407 28.1188 13.407 28.0498 13.407 27.9118V26.9503C13.407 26.7433 13.2 26.4688 12.993 26.3308ZM20.2815 4.8808C20.2242 4.84759 20.1599 4.82844 20.0938 4.82492C20.0277 4.8214 19.9617 4.83361 19.9013 4.86055C19.8408 4.88749 19.7876 4.92839 19.746 4.97989C19.7044 5.03139 19.6756 5.09202 19.662 5.1568C19.5945 5.2243 19.5945 5.2933 19.5945 5.4313V6.3928C19.6061 6.53145 19.6493 6.6656 19.7208 6.78495C19.7923 6.9043 19.8902 7.00568 20.007 7.0813C21.9852 7.80687 23.6929 9.1223 24.8993 10.8498C26.1057 12.5773 26.7526 14.6335 26.7526 16.7405C26.7526 18.8476 26.1057 20.9038 24.8993 22.6313C23.6929 24.3588 21.9852 25.6742 20.007 26.3998C19.8752 26.4569 19.7645 26.5539 19.6905 26.6771C19.6165 26.8003 19.583 26.9436 19.5945 27.0868V28.0498C19.5852 28.1759 19.6218 28.3011 19.6976 28.4023C19.7735 28.5035 19.8834 28.5738 20.007 28.6003C20.1038 28.6104 20.201 28.586 20.2815 28.5313C22.7834 27.7248 24.9651 26.1455 26.5126 24.0206C28.0602 21.8957 28.894 19.3348 28.894 16.706C28.894 14.0773 28.0602 11.5164 26.5126 9.39149C24.9651 7.26661 22.7834 5.68733 20.2815 4.8808V4.8808Z" fill="white"/>
</g>
<defs>
<clipPath id="clip0_1682_6172">
<rect width="33" height="33" fill="white"/>
</clipPath>
</defs>
</svg>
