<svg width="33" height="33" viewBox="0 0 33 33" fill="none" xmlns="http://www.w3.org/2000/svg">
<path d="M16.5 33C25.6127 33 33 25.6127 33 16.5C33 7.3873 25.6127 0 16.5 0C7.3873 0 0 7.3873 0 16.5C0 25.6127 7.3873 33 16.5 33Z" fill="#26A17B"/>
<path fill-rule="evenodd" clip-rule="evenodd" d="M18.4821 17.9264V17.9243C18.3687 17.9325 17.7839 17.9676 16.4794 17.9676C15.4379 17.9676 14.7046 17.9367 14.4468 17.9243V17.9274C10.4373 17.751 7.44464 17.0529 7.44464 16.2176C7.44464 15.3833 10.4373 14.6851 14.4468 14.5057V17.2323C14.7088 17.2509 15.4595 17.2952 16.4969 17.2952C17.7417 17.2952 18.3656 17.2437 18.4821 17.2334V14.5078C22.4834 14.6862 25.4688 15.3843 25.4688 16.2176C25.4688 17.0529 22.4834 17.749 18.4821 17.9264ZM18.4821 14.2242V11.7842H24.0653V8.06348H8.86364V11.7842H14.4468V14.2231C9.90932 14.4314 6.49692 15.3307 6.49692 16.4073C6.49692 17.4839 9.90932 18.3822 14.4468 18.5915V26.4104H18.4821V18.5894C23.0124 18.3811 26.4165 17.4829 26.4165 16.4073C26.4165 15.3317 23.0124 14.4335 18.4821 14.2242Z" fill="white"/>
</svg>
