<svg width="33" height="33" viewBox="0 0 33 33" fill="none" xmlns="http://www.w3.org/2000/svg">
<path d="M33 16.5C33 7.3873 25.6127 0 16.5 0C7.3873 0 0 7.3873 0 16.5C0 25.6127 7.3873 33 16.5 33C25.6127 33 33 25.6127 33 16.5Z" fill="black"/>
<path d="M12.8863 9.25783C12.5229 8.77212 11.8755 8.56751 11.2836 8.75128C10.6919 8.93512 10.2908 9.46538 10.2908 10.0639V12.8224H6.94736V15.5809H10.2908V17.4199H6.94736V20.1784H10.2908V24.3162H13.1566V14.3387L20.1137 23.6358C20.4771 24.1215 21.1245 24.3261 21.7163 24.1422C22.3081 23.9585 22.7092 23.4282 22.7092 22.8296V20.1784H26.0526V17.4199H22.7092V15.5809H26.0526V12.8224H22.7092V8.68467H19.8434V18.5549L12.8863 9.25783Z" fill="white"/>
</svg>
